<svg width="1600" height="900" viewBox="0 0 1600 900" fill="none" xmlns="http://www.w3.org/2000/svg">
  <rect width="1600" height="900" fill="#F4EEE5"/>
  <rect x="60" y="60" width="1480" height="780" rx="42" fill="#FFF9F2"/>
  <rect x="150" y="220" width="1300" height="420" rx="34" fill="#EAF1E3" stroke="#8CA37E" stroke-width="8"/>
  <rect x="210" y="270" width="260" height="240" rx="26" fill="#C9D9BE"/>
  <rect x="520" y="270" width="260" height="240" rx="26" fill="#D2E2C6"/>
  <rect x="830" y="270" width="260" height="240" rx="26" fill="#DBE8D0"/>
  <rect x="1140" y="270" width="260" height="240" rx="26" fill="#E2EDDA"/>
  <rect x="235" y="475" width="210" height="24" rx="12" fill="#8B7656"/>
  <rect x="545" y="475" width="210" height="24" rx="12" fill="#8B7656"/>
  <rect x="855" y="475" width="210" height="24" rx="12" fill="#8B7656"/>
  <rect x="1165" y="475" width="210" height="24" rx="12" fill="#8B7656"/>
  <circle cx="340" cy="355" r="62" fill="#A8C46A"/>
  <circle cx="308" cy="378" r="44" fill="#B7D57D"/>
  <circle cx="372" cy="378" r="44" fill="#B7D57D"/>
  <rect x="615" y="332" width="70" height="110" rx="28" fill="#D96E42"/>
  <path d="M650 302C665 280 695 284 706 306" stroke="#4E7B49" stroke-width="16" stroke-linecap="round"/>
  <path d="M930 320L995 430" stroke="#719459" stroke-width="18" stroke-linecap="round"/>
  <path d="M995 320L930 430" stroke="#719459" stroke-width="18" stroke-linecap="round"/>
  <path d="M1240 308L1240 446" stroke="#7D6A53" stroke-width="18" stroke-linecap="round"/>
  <path d="M1240 330L1192 392" stroke="#4E7B49" stroke-width="16" stroke-linecap="round"/>
  <path d="M1240 356L1288 418" stroke="#4E7B49" stroke-width="16" stroke-linecap="round"/>
  <text x="150" y="150" fill="#2B3B32" font-family="Arial, sans-serif" font-size="56" font-weight="700">Best vegetables for small balconies</text>
  <text x="150" y="740" fill="#5E6E54" font-family="Arial, sans-serif" font-size="34">Compact crops, selective vertical support, and enough root depth beat overcrowded plans.</text>
  <text x="255" y="560" fill="#2B3B32" font-family="Arial, sans-serif" font-size="30" font-weight="700">Leafy greens</text>
  <text x="585" y="560" fill="#2B3B32" font-family="Arial, sans-serif" font-size="30" font-weight="700">Compact peppers</text>
  <text x="915" y="560" fill="#2B3B32" font-family="Arial, sans-serif" font-size="30" font-weight="700">Quick crops</text>
  <text x="1185" y="560" fill="#2B3B32" font-family="Arial, sans-serif" font-size="30" font-weight="700">Vertical growers</text>
</svg>
