<svg width="1200" height="720" viewBox="0 0 1200 720" fill="none" xmlns="http://www.w3.org/2000/svg">
  <rect width="1200" height="720" rx="48" fill="#F6F3EC"/>
  <circle cx="171" cy="126" r="144" fill="#DCE8E4"/>
  <circle cx="1024" cy="578" r="170" fill="#E6DED0"/>
  <rect x="124" y="164" width="420" height="392" rx="40" fill="#FFFDF8" stroke="#D3DDD8"/>
  <rect x="184" y="396" width="300" height="100" rx="24" fill="#5F857E" fill-opacity="0.14"/>
  <path d="M214 368H454" stroke="#5F857E" stroke-width="12" stroke-linecap="round"/>
  <path d="M246 332C246 282.294 286.294 242 336 242V242C336 291.706 295.706 332 246 332V332Z" fill="#5F857E"/>
  <path d="M332 320C332 275.265 368.265 239 413 239V239C413 283.735 376.735 320 332 320V320Z" fill="#8FB6AE"/>
  <rect x="634" y="184" width="412" height="348" rx="42" fill="#F1ECE3" stroke="#D7D0C7"/>
  <path d="M700 396H980" stroke="#5F857E" stroke-width="14" stroke-linecap="round"/>
  <path d="M742 396V326" stroke="#5F857E" stroke-width="10" stroke-linecap="round"/>
  <path d="M840 396V282" stroke="#5F857E" stroke-width="10" stroke-linecap="round"/>
  <path d="M938 396V334" stroke="#5F857E" stroke-width="10" stroke-linecap="round"/>
  <circle cx="742" cy="312" r="20" fill="#8FB6AE"/>
  <circle cx="840" cy="266" r="20" fill="#5F857E"/>
  <circle cx="938" cy="320" r="20" fill="#B48E54"/>
</svg>
