<svg width="1200" height="720" viewBox="0 0 1200 720" fill="none" xmlns="http://www.w3.org/2000/svg">
  <rect width="1200" height="720" rx="48" fill="#F8F3EB"/>
  <circle cx="1030" cy="128" r="154" fill="#EADFD2"/>
  <circle cx="156" cy="566" r="164" fill="#E1D8CA"/>
  <rect x="144" y="156" width="420" height="404" rx="42" fill="#FFFDF8" stroke="#D9D0C0"/>
  <path d="M354 420V262" stroke="#8C685F" stroke-width="12" stroke-linecap="round"/>
  <path d="M354 330C354 275.324 398.324 231 453 231V231C453 285.676 408.676 330 354 330V330Z" fill="#8C685F"/>
  <path d="M281 360C281 315.265 317.265 279 362 279V279C362 323.735 325.735 360 281 360V360Z" fill="#B9978F"/>
  <circle cx="442" cy="250" r="18" fill="#B48E54"/>
  <rect x="650" y="178" width="384" height="360" rx="42" fill="#F3ECE2" stroke="#DDD2C5"/>
  <path d="M722 274H962" stroke="#8C685F" stroke-width="12" stroke-linecap="round"/>
  <path d="M722 356H962" stroke="#8C685F" stroke-width="12" stroke-linecap="round" opacity="0.5"/>
  <path d="M722 438H898" stroke="#8C685F" stroke-width="12" stroke-linecap="round" opacity="0.35"/>
  <circle cx="688" cy="274" r="18" fill="#8C685F"/>
  <circle cx="688" cy="356" r="18" fill="#B48E54"/>
  <circle cx="688" cy="438" r="18" fill="#93A785"/>
</svg>
