<svg width="1600" height="900" viewBox="0 0 1600 900" fill="none" xmlns="http://www.w3.org/2000/svg">
  <rect width="1600" height="900" fill="#F4EEE5"/>
  <rect x="60" y="60" width="1480" height="780" rx="42" fill="#F5FBFA"/>
  <rect x="150" y="220" width="1300" height="450" rx="34" fill="#E2F0EE" stroke="#5F857E" stroke-width="8"/>
  <rect x="240" y="300" width="290" height="290" rx="28" fill="#F8FCFB"/>
  <rect x="655" y="300" width="290" height="290" rx="28" fill="#F8FCFB"/>
  <rect x="1070" y="300" width="290" height="290" rx="28" fill="#F8FCFB"/>
  <circle cx="385" cy="410" r="80" fill="#B8D8D2"/>
  <text x="320" y="426" fill="#2C4A47" font-family="Arial, sans-serif" font-size="56" font-weight="700">EC</text>
  <path d="M780 345C833 345 875 385 875 438C875 491 833 531 780 531C727 531 685 491 685 438C685 385 727 345 780 345Z" fill="#C8E1DC"/>
  <path d="M780 372C812 422 812 450 780 500C748 450 748 422 780 372Z" fill="#5F857E"/>
  <rect x="1155" y="350" width="120" height="175" rx="18" fill="#C8E1DC"/>
  <path d="M1215 320V562" stroke="#5F857E" stroke-width="18" stroke-linecap="round"/>
  <path d="M1185 395H1245" stroke="#5F857E" stroke-width="14" stroke-linecap="round"/>
  <path d="M1185 455H1245" stroke="#5F857E" stroke-width="14" stroke-linecap="round"/>
  <text x="150" y="150" fill="#2B3B32" font-family="Arial, sans-serif" font-size="56" font-weight="700">Hydroponic nutrients: EC and pH basics</text>
  <text x="150" y="740" fill="#5E6E54" font-family="Arial, sans-serif" font-size="34">Keep concentration, pH, and reservoir stability in balance before chasing bottled fixes.</text>
  <text x="290" y="620" fill="#2B3B32" font-family="Arial, sans-serif" font-size="30" font-weight="700">Concentration</text>
  <text x="725" y="620" fill="#2B3B32" font-family="Arial, sans-serif" font-size="30" font-weight="700">pH range</text>
  <text x="1115" y="620" fill="#2B3B32" font-family="Arial, sans-serif" font-size="30" font-weight="700">Reservoir checks</text>
</svg>
