<svg width="1200" height="720" viewBox="0 0 1200 720" fill="none" xmlns="http://www.w3.org/2000/svg">
  <rect width="1200" height="720" rx="48" fill="#F7F2E8"/>
  <circle cx="1028" cy="136" r="152" fill="#E8E0D1"/>
  <circle cx="170" cy="582" r="160" fill="#DDD7C8"/>
  <rect x="172" y="194" width="240" height="238" rx="28" fill="#8B7656"/>
  <rect x="470" y="148" width="280" height="284" rx="32" fill="#A58E6D"/>
  <rect x="808" y="224" width="220" height="208" rx="28" fill="#756348"/>
  <path d="M268 194V124" stroke="#6F8763" stroke-width="12" stroke-linecap="round"/>
  <path d="M588 148V76" stroke="#6F8763" stroke-width="12" stroke-linecap="round"/>
  <path d="M918 224V154" stroke="#6F8763" stroke-width="12" stroke-linecap="round"/>
  <path d="M268 208C268 153.324 312.324 109 367 109V109C367 163.676 322.676 208 268 208V208Z" fill="#6F8763"/>
  <path d="M209 194C209 149.265 245.265 113 290 113V113C290 157.735 253.735 194 209 194V194Z" fill="#93A785"/>
  <path d="M588 162C588 107.324 632.324 63 687 63V63C687 117.676 642.676 162 588 162V162Z" fill="#6F8763"/>
  <path d="M918 238C918 193.265 954.265 157 999 157V157C999 201.735 962.735 238 918 238V238Z" fill="#93A785"/>
  <rect x="134" y="486" width="932" height="88" rx="34" fill="#FFFDF8" stroke="#D9D0C0"/>
</svg>
