<svg width="1600" height="900" viewBox="0 0 1600 900" fill="none" xmlns="http://www.w3.org/2000/svg">
  <rect width="1600" height="900" fill="#F4EEE5"/>
  <rect x="60" y="60" width="1480" height="780" rx="42" fill="#FFF9F2"/>
  <rect x="160" y="220" width="360" height="430" rx="30" fill="#F7F1E8" stroke="#B48E54" stroke-width="8"/>
  <rect x="620" y="220" width="360" height="430" rx="30" fill="#F7F1E8" stroke="#B48E54" stroke-width="8"/>
  <rect x="1080" y="220" width="360" height="430" rx="30" fill="#F7F1E8" stroke="#B48E54" stroke-width="8"/>
  <rect x="220" y="280" width="240" height="34" rx="17" fill="#E3D2AF"/>
  <rect x="705" y="270" width="190" height="90" rx="20" fill="#E3D2AF"/>
  <circle cx="1260" cy="320" r="58" fill="#E3D2AF"/>
  <path d="M340 314V470" stroke="#C7A268" stroke-width="20" stroke-linecap="round"/>
  <path d="M800 360V470" stroke="#C7A268" stroke-width="20" stroke-linecap="round"/>
  <path d="M1260 378V470" stroke="#C7A268" stroke-width="20" stroke-linecap="round"/>
  <path d="M250 500H430" stroke="#B7D57D" stroke-width="26" stroke-linecap="round"/>
  <path d="M710 500H890" stroke="#B7D57D" stroke-width="26" stroke-linecap="round"/>
  <path d="M1170 500H1350" stroke="#B7D57D" stroke-width="26" stroke-linecap="round"/>
  <circle cx="300" cy="560" r="30" fill="#93B468"/>
  <circle cx="340" cy="545" r="34" fill="#A8C46A"/>
  <circle cx="380" cy="560" r="30" fill="#93B468"/>
  <circle cx="760" cy="560" r="30" fill="#93B468"/>
  <circle cx="800" cy="545" r="34" fill="#A8C46A"/>
  <circle cx="840" cy="560" r="30" fill="#93B468"/>
  <circle cx="1220" cy="560" r="30" fill="#93B468"/>
  <circle cx="1260" cy="545" r="34" fill="#A8C46A"/>
  <circle cx="1300" cy="560" r="30" fill="#93B468"/>
  <text x="150" y="150" fill="#2B3B32" font-family="Arial, sans-serif" font-size="56" font-weight="700">Best grow lights for herbs</text>
  <text x="150" y="740" fill="#5E6E54" font-family="Arial, sans-serif" font-size="34">Match fixture shape to the real shelf, counter, or small indoor footprint.</text>
  <text x="230" y="610" fill="#2B3B32" font-family="Arial, sans-serif" font-size="30" font-weight="700">Bar light</text>
  <text x="705" y="610" fill="#2B3B32" font-family="Arial, sans-serif" font-size="30" font-weight="700">Panel light</text>
  <text x="1160" y="610" fill="#2B3B32" font-family="Arial, sans-serif" font-size="30" font-weight="700">Spot light</text>
</svg>
