<svg width="1200" height="630" viewBox="0 0 1200 630" fill="none" xmlns="http://www.w3.org/2000/svg">
  <rect width="1200" height="630" rx="42" fill="#F7F2E8"/>
  <circle cx="1012" cy="124" r="144" fill="#E4D9C8"/>
  <circle cx="182" cy="522" r="180" fill="#DCE5D6"/>
  <rect x="96" y="92" width="1008" height="446" rx="38" fill="#FFFDF8" stroke="#DDD4C8"/>
  <rect x="132" y="128" width="124" height="124" rx="28" fill="url(#paint0_linear_425_2)"/>
  <path d="M195 236V334" stroke="#6F8763" stroke-width="12" stroke-linecap="round"/>
  <path d="M195 314C195 259.324 239.324 215 294 215V215C294 269.676 249.676 314 195 314V314Z" fill="#6F8763"/>
  <path d="M132 298C132 253.265 168.265 217 213 217V217C213 261.735 176.735 298 132 298V298Z" fill="#93A785"/>
  <text x="312" y="210" fill="#22312B" font-family="Georgia, serif" font-size="64" font-weight="700">Urban Harvest Lab</text>
  <text x="312" y="284" fill="#58654A" font-family="Arial, sans-serif" font-size="28">Science-based guides for urban gardening, hydroponics, grow lights,</text>
  <text x="312" y="322" fill="#58654A" font-family="Arial, sans-serif" font-size="28">containers, soil, and small-space food growing.</text>
  <rect x="312" y="380" width="264" height="54" rx="27" fill="#22312B"/>
  <text x="352" y="414" fill="#FFFDF8" font-family="Arial, sans-serif" font-size="24" font-weight="700">urbanharvestlab.com</text>
  <defs>
    <linearGradient id="paint0_linear_425_2" x1="132" y1="128" x2="256" y2="252" gradientUnits="userSpaceOnUse">
      <stop stop-color="#DCE5D6"/>
      <stop offset="1" stop-color="#F1E3C6"/>
    </linearGradient>
  </defs>
</svg>
